<mxfile host="app.diagrams.net" modified="2021-08-20T08:47:55.151Z" agent="5.0 (Windows NT 10.0; Win64; x64) AppleWebKit/537.36 (KHTML, like Gecko) Chrome/92.0.4515.159 Safari/537.36" etag="EYKgKp4pKXYo_0k9WRbR" version="14.9.8" type="github">
  <diagram id="Qtr8reI2vZcIZclw-s_d" name="Page-1">
    <mxGraphModel dx="777" dy="425" grid="1" gridSize="10" guides="1" tooltips="1" connect="1" arrows="1" fold="1" page="1" pageScale="1" pageWidth="827" pageHeight="1169" math="0" shadow="0">
      <root>
        <mxCell id="0" />
        <mxCell id="1" parent="0" />
        <mxCell id="wfZRXzgAYA6T2uDvCTGn-1" value="" style="rounded=0;whiteSpace=wrap;html=1;" vertex="1" parent="1">
          <mxGeometry x="200" y="80" width="360" height="380" as="geometry" />
        </mxCell>
        <mxCell id="wfZRXzgAYA6T2uDvCTGn-2" value="App Name Goes Here" style="text;html=1;strokeColor=none;fillColor=none;align=center;verticalAlign=middle;whiteSpace=wrap;rounded=0;fontSize=18;" vertex="1" parent="1">
          <mxGeometry x="287.5" y="120" width="185" height="30" as="geometry" />
        </mxCell>
        <mxCell id="wfZRXzgAYA6T2uDvCTGn-3" value="Find dates!" style="rounded=1;whiteSpace=wrap;html=1;" vertex="1" parent="1">
          <mxGeometry x="298.75" y="200" width="162.5" height="30" as="geometry" />
        </mxCell>
        <mxCell id="wfZRXzgAYA6T2uDvCTGn-4" value="Chat med dine matches" style="rounded=1;whiteSpace=wrap;html=1;" vertex="1" parent="1">
          <mxGeometry x="297.5" y="260" width="165" height="30" as="geometry" />
        </mxCell>
        <mxCell id="wfZRXzgAYA6T2uDvCTGn-5" value="Indstillinger" style="rounded=1;whiteSpace=wrap;html=1;" vertex="1" parent="1">
          <mxGeometry x="296.25" y="320" width="165" height="30" as="geometry" />
        </mxCell>
        <mxCell id="wfZRXzgAYA6T2uDvCTGn-6" value="Log ud" style="rounded=1;whiteSpace=wrap;html=1;" vertex="1" parent="1">
          <mxGeometry x="296.25" y="380" width="165" height="30" as="geometry" />
        </mxCell>
      </root>
    </mxGraphModel>
  </diagram>
</mxfile>
